<svg width="24" height="24" viewBox="0 0 24 24" fill="none" xmlns="http://www.w3.org/2000/svg">
<path d="M11.4294 0C8.32556 0 7.93604 0.0135716 6.71697 0.0690478C5.5003 0.124762 4.66981 0.317381 3.94314 0.6C3.19146 0.891905 2.55384 1.28238 1.91859 1.91786C1.28287 2.5531 0.89239 3.19071 0.59953 3.94214C0.316194 4.66905 0.123335 5.49976 0.0685722 6.71595C0.0142859 7.935 0 8.32476 0 11.4286C0 14.5324 0.0138099 14.9207 0.0690486 16.1398C0.125002 17.3564 0.317623 18.1869 0.600006 18.9136C0.892152 19.6652 1.28263 20.3029 1.91812 20.9381C2.55312 21.5738 3.19075 21.9652 3.94195 22.2571C4.6691 22.5398 5.49982 22.7324 6.71626 22.7881C7.93532 22.8436 8.32461 22.8571 11.4282 22.8571C14.5323 22.8571 14.9206 22.8436 16.1397 22.7881C17.3564 22.7324 18.1878 22.5398 18.915 22.2571C19.6664 21.9652 20.3031 21.5738 20.9381 20.9381C21.5738 20.3029 21.9643 19.6652 22.2571 18.9138C22.5381 18.1869 22.731 17.3562 22.7881 16.14C22.8429 14.921 22.8571 14.5324 22.8571 11.4286C22.8571 8.32476 22.8429 7.93524 22.7881 6.71619C22.731 5.49952 22.5381 4.66905 22.2571 3.94238C21.9643 3.19071 21.5738 2.5531 20.9381 1.91786C20.3024 1.28214 19.6666 0.891667 18.9142 0.6C18.1857 0.317381 17.3547 0.124762 16.138 0.0690478C14.919 0.0135716 14.5309 0 11.4261 0H11.4294ZM10.4042 2.05952C10.7084 2.05905 11.048 2.05952 11.4294 2.05952C14.4809 2.05952 14.8425 2.07048 16.0476 2.12524C17.1618 2.17619 17.7666 2.36238 18.1695 2.51881C18.7028 2.72595 19.0831 2.97357 19.4828 3.37357C19.8828 3.77357 20.1304 4.15452 20.3381 4.68786C20.4945 5.09024 20.6809 5.695 20.7316 6.80929C20.7864 8.01405 20.7983 8.37595 20.7983 11.426C20.7983 14.476 20.7864 14.8379 20.7316 16.0426C20.6807 17.1569 20.4945 17.7617 20.3381 18.164C20.1309 18.6974 19.8828 19.0771 19.4828 19.4769C19.0828 19.8769 18.7031 20.1245 18.1695 20.3317C17.7671 20.4888 17.1618 20.6745 16.0476 20.7255C14.8428 20.7802 14.4809 20.7921 11.4294 20.7921C8.37771 20.7921 8.01604 20.7802 6.81126 20.7255C5.69696 20.674 5.0922 20.4879 4.6891 20.3314C4.15576 20.1243 3.7748 19.8767 3.3748 19.4767C2.97479 19.0767 2.72717 18.6967 2.51955 18.1631C2.36312 17.7607 2.17669 17.156 2.12597 16.0417C2.07121 14.8369 2.06026 14.475 2.06026 11.4231C2.06026 8.37119 2.07121 8.01119 2.12597 6.80643C2.17693 5.69214 2.36312 5.08738 2.51955 4.68452C2.7267 4.15119 2.97479 3.77024 3.3748 3.37024C3.7748 2.97024 4.15576 2.72262 4.6891 2.515C5.09196 2.35786 5.69696 2.17214 6.81126 2.12095C7.86556 2.07333 8.27413 2.05905 10.4042 2.05667V2.05952Z" fill="url(#paint0_radial_381_137)"/>
<path d="M17.5054 3.92907C17.2341 3.92907 16.9689 4.00951 16.7434 4.16023C16.5178 4.31095 16.3421 4.52516 16.2383 4.77578C16.1345 5.02641 16.1074 5.30218 16.1603 5.56823C16.2133 5.83427 16.3439 6.07863 16.5358 6.27041C16.7276 6.46219 16.972 6.59277 17.2381 6.64563C17.5042 6.6985 17.7799 6.67127 18.0305 6.5674C18.2811 6.46352 18.4953 6.28767 18.6459 6.06208C18.7966 5.83648 18.8769 5.57128 18.8768 5.30002C18.8768 4.54288 18.2625 3.92859 17.5054 3.92859V3.92907Z" fill="url(#paint1_radial_381_137)"/>
<path fill-rule="evenodd" clip-rule="evenodd" d="M11.4048 5.53145C8.1636 5.53145 5.53572 8.15931 5.53572 11.4005C5.53572 14.6417 8.1636 17.2684 11.4048 17.2684C14.6461 17.2684 17.2732 14.6417 17.2732 11.4005C17.2732 8.15931 14.6461 5.53145 11.4048 5.53145ZM11.4286 15.1786C13.4996 15.1786 15.1786 13.4997 15.1786 11.4286C15.1786 9.35753 13.4996 7.67859 11.4286 7.67859C9.35751 7.67859 7.67858 9.35753 7.67858 11.4286C7.67858 13.4997 9.35751 15.1786 11.4286 15.1786Z" fill="url(#paint2_radial_381_137)"/>
<path d="M11.4294 0C8.32556 0 7.93604 0.0135716 6.71697 0.0690478C5.5003 0.124762 4.66981 0.317381 3.94314 0.6C3.19146 0.891905 2.55384 1.28238 1.91859 1.91786C1.28287 2.5531 0.89239 3.19071 0.59953 3.94214C0.316194 4.66905 0.123335 5.49976 0.0685722 6.71595C0.0142859 7.935 0 8.32476 0 11.4286C0 14.5324 0.0138099 14.9207 0.0690486 16.1398C0.125002 17.3564 0.317623 18.1869 0.600006 18.9136C0.892152 19.6652 1.28263 20.3029 1.91812 20.9381C2.55312 21.5738 3.19075 21.9652 3.94195 22.2571C4.6691 22.5398 5.49982 22.7324 6.71626 22.7881C7.93532 22.8436 8.32461 22.8571 11.4282 22.8571C14.5323 22.8571 14.9206 22.8436 16.1397 22.7881C17.3564 22.7324 18.1878 22.5398 18.915 22.2571C19.6664 21.9652 20.3031 21.5738 20.9381 20.9381C21.5738 20.3029 21.9643 19.6652 22.2571 18.9138C22.5381 18.1869 22.731 17.3562 22.7881 16.14C22.8429 14.921 22.8571 14.5324 22.8571 11.4286C22.8571 8.32476 22.8429 7.93524 22.7881 6.71619C22.731 5.49952 22.5381 4.66905 22.2571 3.94238C21.9643 3.19071 21.5738 2.5531 20.9381 1.91786C20.3024 1.28214 19.6666 0.891667 18.9142 0.6C18.1857 0.317381 17.3547 0.124762 16.138 0.0690478C14.919 0.0135716 14.5309 0 11.4261 0H11.4294ZM10.4042 2.05952C10.7084 2.05905 11.048 2.05952 11.4294 2.05952C14.4809 2.05952 14.8425 2.07048 16.0476 2.12524C17.1618 2.17619 17.7666 2.36238 18.1695 2.51881C18.7028 2.72595 19.0831 2.97357 19.4828 3.37357C19.8828 3.77357 20.1304 4.15452 20.3381 4.68786C20.4945 5.09024 20.6809 5.695 20.7316 6.80929C20.7864 8.01405 20.7983 8.37595 20.7983 11.426C20.7983 14.476 20.7864 14.8379 20.7316 16.0426C20.6807 17.1569 20.4945 17.7617 20.3381 18.164C20.1309 18.6974 19.8828 19.0771 19.4828 19.4769C19.0828 19.8769 18.7031 20.1245 18.1695 20.3317C17.7671 20.4888 17.1618 20.6745 16.0476 20.7255C14.8428 20.7802 14.4809 20.7921 11.4294 20.7921C8.37771 20.7921 8.01604 20.7802 6.81126 20.7255C5.69696 20.674 5.0922 20.4879 4.6891 20.3314C4.15576 20.1243 3.7748 19.8767 3.3748 19.4767C2.97479 19.0767 2.72717 18.6967 2.51955 18.1631C2.36312 17.7607 2.17669 17.156 2.12597 16.0417C2.07121 14.8369 2.06026 14.475 2.06026 11.4231C2.06026 8.37119 2.07121 8.01119 2.12597 6.80643C2.17693 5.69214 2.36312 5.08738 2.51955 4.68452C2.7267 4.15119 2.97479 3.77024 3.3748 3.37024C3.7748 2.97024 4.15576 2.72262 4.6891 2.515C5.09196 2.35786 5.69696 2.17214 6.81126 2.12095C7.86556 2.07333 8.27413 2.05905 10.4042 2.05667V2.05952Z" fill="url(#paint3_radial_381_137)"/>
<path d="M17.5054 3.92907C17.2341 3.92907 16.9689 4.00951 16.7434 4.16023C16.5178 4.31095 16.3421 4.52516 16.2383 4.77578C16.1345 5.02641 16.1074 5.30218 16.1603 5.56823C16.2133 5.83427 16.3439 6.07863 16.5358 6.27041C16.7276 6.46219 16.972 6.59277 17.2381 6.64563C17.5042 6.6985 17.7799 6.67127 18.0305 6.5674C18.2811 6.46352 18.4953 6.28767 18.6459 6.06208C18.7966 5.83648 18.8769 5.57128 18.8768 5.30002C18.8768 4.54288 18.2625 3.92859 17.5054 3.92859V3.92907Z" fill="url(#paint4_radial_381_137)"/>
<path fill-rule="evenodd" clip-rule="evenodd" d="M11.4048 5.53145C8.1636 5.53145 5.53572 8.15931 5.53572 11.4005C5.53572 14.6417 8.1636 17.2684 11.4048 17.2684C14.6461 17.2684 17.2732 14.6417 17.2732 11.4005C17.2732 8.15931 14.6461 5.53145 11.4048 5.53145ZM11.4286 15.1786C13.4996 15.1786 15.1786 13.4997 15.1786 11.4286C15.1786 9.35753 13.4996 7.67859 11.4286 7.67859C9.35751 7.67859 7.67858 9.35753 7.67858 11.4286C7.67858 13.4997 9.35751 15.1786 11.4286 15.1786Z" fill="url(#paint5_radial_381_137)"/>
<defs>
<radialGradient id="paint0_radial_381_137" cx="0" cy="0" r="1" gradientUnits="userSpaceOnUse" gradientTransform="translate(6.07146 24.6176) rotate(-90) scale(22.6531 21.0692)">
<stop stop-color="#FFDD55"/>
<stop offset="0.1" stop-color="#FFDD55"/>
<stop offset="0.5" stop-color="#FF543E"/>
<stop offset="1" stop-color="#C837AB"/>
</radialGradient>
<radialGradient id="paint1_radial_381_137" cx="0" cy="0" r="1" gradientUnits="userSpaceOnUse" gradientTransform="translate(6.07146 24.6176) rotate(-90) scale(22.6531 21.0692)">
<stop stop-color="#FFDD55"/>
<stop offset="0.1" stop-color="#FFDD55"/>
<stop offset="0.5" stop-color="#FF543E"/>
<stop offset="1" stop-color="#C837AB"/>
</radialGradient>
<radialGradient id="paint2_radial_381_137" cx="0" cy="0" r="1" gradientUnits="userSpaceOnUse" gradientTransform="translate(6.07146 24.6176) rotate(-90) scale(22.6531 21.0692)">
<stop stop-color="#FFDD55"/>
<stop offset="0.1" stop-color="#FFDD55"/>
<stop offset="0.5" stop-color="#FF543E"/>
<stop offset="1" stop-color="#C837AB"/>
</radialGradient>
<radialGradient id="paint3_radial_381_137" cx="0" cy="0" r="1" gradientUnits="userSpaceOnUse" gradientTransform="translate(-3.82869 1.64659) rotate(78.6806) scale(10.126 41.74)">
<stop stop-color="#3771C8"/>
<stop offset="0.128" stop-color="#3771C8"/>
<stop offset="1" stop-color="#6600FF" stop-opacity="0"/>
</radialGradient>
<radialGradient id="paint4_radial_381_137" cx="0" cy="0" r="1" gradientUnits="userSpaceOnUse" gradientTransform="translate(-3.82869 1.64659) rotate(78.6806) scale(10.126 41.74)">
<stop stop-color="#3771C8"/>
<stop offset="0.128" stop-color="#3771C8"/>
<stop offset="1" stop-color="#6600FF" stop-opacity="0"/>
</radialGradient>
<radialGradient id="paint5_radial_381_137" cx="0" cy="0" r="1" gradientUnits="userSpaceOnUse" gradientTransform="translate(-3.82869 1.64659) rotate(78.6806) scale(10.126 41.74)">
<stop stop-color="#3771C8"/>
<stop offset="0.128" stop-color="#3771C8"/>
<stop offset="1" stop-color="#6600FF" stop-opacity="0"/>
</radialGradient>
</defs>
</svg>
