<svg width="356" height="73" viewBox="0 0 356 73" fill="none" xmlns="http://www.w3.org/2000/svg">
<rect width="356" height="73" rx="20" fill="#817C9C"/>
<path d="M135.121 24.0998C136.036 24.2629 136.812 24.7438 137.45 25.5427C138.087 26.3415 138.406 27.2464 138.406 28.2572C138.406 29.1212 138.177 29.9038 137.719 30.6048C137.278 31.2896 136.632 31.8357 135.783 32.2433C134.933 32.6346 133.944 32.8302 132.816 32.8302H126V15.8341H132.497C133.658 15.8341 134.655 16.0298 135.488 16.421C136.322 16.8123 136.951 17.3422 137.376 18.0106C137.801 18.6627 138.014 19.3964 138.014 20.2115C138.014 21.1897 137.752 22.0049 137.229 22.657C136.706 23.3091 136.003 23.7901 135.121 24.0998ZM128.795 22.9749H132.252C133.167 22.9749 133.878 22.7711 134.385 22.3635C134.908 21.9397 135.17 21.3364 135.17 20.5539C135.17 19.7876 134.908 19.1926 134.385 18.7687C133.878 18.3285 133.167 18.1084 132.252 18.1084H128.795V22.9749ZM132.571 30.5559C133.519 30.5559 134.262 30.3277 134.802 29.8712C135.341 29.4147 135.611 28.7789 135.611 27.9637C135.611 27.1322 135.325 26.472 134.753 25.9829C134.181 25.4938 133.421 25.2492 132.473 25.2492H128.795V30.5559H132.571Z" fill="white"/>
<path d="M140.512 26.0318C140.512 24.6786 140.789 23.4803 141.345 22.4369C141.917 21.3935 142.685 20.5865 143.65 20.0159C144.631 19.429 145.709 19.1355 146.886 19.1355C147.949 19.1355 148.872 19.3475 149.657 19.7713C150.458 20.1789 151.095 20.6925 151.569 21.312V19.3556H154.389V32.8302H151.569V30.8249C151.095 31.4607 150.449 31.9906 149.632 32.4145C148.815 32.8384 147.883 33.0503 146.837 33.0503C145.677 33.0503 144.614 32.7568 143.65 32.1699C142.685 31.5667 141.917 30.7353 141.345 29.6755C140.789 28.5995 140.512 27.3849 140.512 26.0318ZM151.569 26.0807C151.569 25.1514 151.373 24.3444 150.981 23.6597C150.605 22.9749 150.106 22.4532 149.485 22.0945C148.864 21.7359 148.194 21.5565 147.475 21.5565C146.755 21.5565 146.085 21.7359 145.464 22.0945C144.843 22.4369 144.336 22.9505 143.944 23.6352C143.568 24.3036 143.38 25.1025 143.38 26.0318C143.38 26.9611 143.568 27.7762 143.944 28.4773C144.336 29.1783 144.843 29.7163 145.464 30.0913C146.102 30.4499 146.772 30.6293 147.475 30.6293C148.194 30.6293 148.864 30.4499 149.485 30.0913C150.106 29.7326 150.605 29.2109 150.981 28.5262C151.373 27.8251 151.569 27.01 151.569 26.0807Z" fill="white"/>
<path d="M164.876 19.1355C165.938 19.1355 166.886 19.3556 167.72 19.7958C168.57 20.236 169.232 20.8881 169.706 21.7522C170.18 22.6163 170.417 23.6597 170.417 24.8824V32.8302H167.646V25.2981C167.646 24.0917 167.344 23.1706 166.739 22.5347C166.134 21.8826 165.309 21.5565 164.263 21.5565C163.217 21.5565 162.383 21.8826 161.762 22.5347C161.157 23.1706 160.855 24.0917 160.855 25.2981V32.8302H158.06V19.3556H160.855V20.8963C161.312 20.342 161.893 19.9099 162.595 19.6002C163.315 19.2904 164.075 19.1355 164.876 19.1355Z" fill="white"/>
<path d="M173.05 26.0318C173.05 24.6786 173.328 23.4803 173.884 22.4369C174.456 21.3935 175.224 20.5865 176.188 20.0159C177.169 19.429 178.256 19.1355 179.449 19.1355C180.332 19.1355 181.198 19.3312 182.048 19.7224C182.914 20.0974 183.601 20.6028 184.108 21.2386V14.7336H186.927V32.8302H184.108V30.8005C183.65 31.4526 183.012 31.9906 182.195 32.4145C181.394 32.8384 180.471 33.0503 179.425 33.0503C178.248 33.0503 177.169 32.7568 176.188 32.1699C175.224 31.5667 174.456 30.7353 173.884 29.6755C173.328 28.5995 173.05 27.3849 173.05 26.0318ZM184.108 26.0807C184.108 25.1514 183.911 24.3444 183.519 23.6597C183.143 22.9749 182.645 22.4532 182.024 22.0945C181.402 21.7359 180.732 21.5565 180.013 21.5565C179.294 21.5565 178.624 21.7359 178.003 22.0945C177.382 22.4369 176.875 22.9505 176.483 23.6352C176.107 24.3036 175.919 25.1025 175.919 26.0318C175.919 26.9611 176.107 27.7762 176.483 28.4773C176.875 29.1783 177.382 29.7163 178.003 30.0913C178.64 30.4499 179.31 30.6293 180.013 30.6293C180.732 30.6293 181.402 30.4499 182.024 30.0913C182.645 29.7326 183.143 29.2109 183.519 28.5262C183.911 27.8251 184.108 27.01 184.108 26.0807Z" fill="white"/>
<path d="M189.667 26.0318C189.667 24.6786 189.944 23.4803 190.5 22.4369C191.072 21.3935 191.84 20.5865 192.805 20.0159C193.786 19.429 194.864 19.1355 196.041 19.1355C197.104 19.1355 198.027 19.3475 198.812 19.7713C199.613 20.1789 200.25 20.6925 200.724 21.312V19.3556H203.544V32.8302H200.724V30.8249C200.25 31.4607 199.604 31.9906 198.787 32.4145C197.97 32.8384 197.038 33.0503 195.992 33.0503C194.832 33.0503 193.769 32.7568 192.805 32.1699C191.84 31.5667 191.072 30.7353 190.5 29.6755C189.944 28.5995 189.667 27.3849 189.667 26.0318ZM200.724 26.0807C200.724 25.1514 200.528 24.3444 200.136 23.6597C199.76 22.9749 199.261 22.4532 198.64 22.0945C198.019 21.7359 197.349 21.5565 196.63 21.5565C195.91 21.5565 195.24 21.7359 194.619 22.0945C193.998 22.4369 193.491 22.9505 193.099 23.6352C192.723 24.3036 192.535 25.1025 192.535 26.0318C192.535 26.9611 192.723 27.7762 193.099 28.4773C193.491 29.1783 193.998 29.7163 194.619 30.0913C195.257 30.4499 195.927 30.6293 196.63 30.6293C197.349 30.6293 198.019 30.4499 198.64 30.0913C199.261 29.7326 199.76 29.2109 200.136 28.5262C200.528 27.8251 200.724 27.01 200.724 26.0807Z" fill="white"/>
<path d="M210.01 21.312C210.418 20.6273 210.958 20.0974 211.628 19.7224C212.314 19.3312 213.123 19.1355 214.055 19.1355V22.0212H213.344C212.249 22.0212 211.415 22.2983 210.843 22.8526C210.288 23.407 210.01 24.3688 210.01 25.7383V32.8302H207.215V19.3556H210.01V21.312Z" fill="white"/>
<path d="M234.002 15.8341V18.1084H229.466V32.8302H226.671V18.1084H222.111V15.8341H234.002Z" fill="white"/>
<path d="M249.214 25.7628C249.214 26.2682 249.181 26.7247 249.116 27.1322H238.794C238.875 28.2083 239.276 29.0723 239.995 29.7245C240.714 30.3766 241.597 30.7026 242.643 30.7026C244.147 30.7026 245.209 30.075 245.83 28.8196H248.846C248.437 30.0587 247.694 31.0776 246.615 31.8765C245.552 32.659 244.228 33.0503 242.643 33.0503C241.352 33.0503 240.191 32.765 239.161 32.1944C238.148 31.6075 237.347 30.7923 236.759 29.7489C236.187 28.6892 235.901 27.4665 235.901 26.0807C235.901 24.6949 236.178 23.4803 236.734 22.4369C237.306 21.3772 238.099 20.562 239.112 19.9914C240.142 19.4208 241.319 19.1355 242.643 19.1355C243.918 19.1355 245.054 19.4127 246.051 19.967C247.048 20.5213 247.824 21.3038 248.38 22.3146C248.936 23.3091 249.214 24.4585 249.214 25.7628ZM246.296 24.8824C246.28 23.8553 245.912 23.032 245.193 22.4125C244.474 21.7929 243.583 21.4832 242.52 21.4832C241.556 21.4832 240.731 21.7929 240.044 22.4125C239.358 23.0157 238.949 23.839 238.818 24.8824H246.296Z" fill="white"/>
<path d="M257.309 26.1051L263.537 32.8302H259.761L254.759 27.0344V32.8302H251.964V14.7336H254.759V25.2492L259.663 19.3556H263.537L257.309 26.1051Z" fill="white"/>
<path d="M272.356 19.1355C273.418 19.1355 274.366 19.3556 275.2 19.7958C276.05 20.236 276.712 20.8881 277.186 21.7522C277.66 22.6163 277.897 23.6597 277.897 24.8824V32.8302H275.126V25.2981C275.126 24.0917 274.824 23.1706 274.219 22.5347C273.614 21.8826 272.789 21.5565 271.743 21.5565C270.697 21.5565 269.863 21.8826 269.242 22.5347C268.637 23.1706 268.335 24.0917 268.335 25.2981V32.8302H265.54V19.3556H268.335V20.8963C268.793 20.342 269.373 19.9099 270.076 19.6002C270.795 19.2904 271.555 19.1355 272.356 19.1355Z" fill="white"/>
<path d="M287.322 33.0503C286.047 33.0503 284.895 32.765 283.865 32.1944C282.835 31.6075 282.026 30.7923 281.438 29.7489C280.849 28.6892 280.555 27.4665 280.555 26.0807C280.555 24.7112 280.857 23.4966 281.462 22.4369C282.067 21.3772 282.892 20.562 283.938 19.9914C284.984 19.4208 286.153 19.1355 287.444 19.1355C288.736 19.1355 289.904 19.4208 290.95 19.9914C291.996 20.562 292.822 21.3772 293.427 22.4369C294.031 23.4966 294.334 24.7112 294.334 26.0807C294.334 27.4502 294.023 28.6647 293.402 29.7245C292.781 30.7842 291.931 31.6075 290.852 32.1944C289.79 32.765 288.613 33.0503 287.322 33.0503ZM287.322 30.6293C288.041 30.6293 288.711 30.4581 289.332 30.1157C289.97 29.7734 290.485 29.2598 290.877 28.5751C291.269 27.8903 291.465 27.0589 291.465 26.0807C291.465 25.1025 291.277 24.2792 290.901 23.6107C290.525 22.926 290.027 22.4125 289.406 22.0701C288.785 21.7277 288.114 21.5565 287.395 21.5565C286.676 21.5565 286.006 21.7277 285.385 22.0701C284.78 22.4125 284.298 22.926 283.938 23.6107C283.579 24.2792 283.399 25.1025 283.399 26.0807C283.399 27.5317 283.767 28.6566 284.502 29.4554C285.254 30.238 286.194 30.6293 287.322 30.6293Z" fill="white"/>
<path d="M299.892 14.7336V32.8302H297.097V14.7336H299.892Z" fill="white"/>
<path d="M309.421 33.0503C308.146 33.0503 306.994 32.765 305.964 32.1944C304.934 31.6075 304.125 30.7923 303.537 29.7489C302.949 28.6892 302.654 27.4665 302.654 26.0807C302.654 24.7112 302.957 23.4966 303.561 22.4369C304.166 21.3772 304.992 20.562 306.038 19.9914C307.084 19.4208 308.252 19.1355 309.544 19.1355C310.835 19.1355 312.004 19.4208 313.05 19.9914C314.096 20.562 314.921 21.3772 315.526 22.4369C316.131 23.4966 316.433 24.7112 316.433 26.0807C316.433 27.4502 316.123 28.6647 315.502 29.7245C314.88 30.7842 314.03 31.6075 312.952 32.1944C311.889 32.765 310.712 33.0503 309.421 33.0503ZM309.421 30.6293C310.14 30.6293 310.81 30.4581 311.432 30.1157C312.069 29.7734 312.584 29.2598 312.976 28.5751C313.369 27.8903 313.565 27.0589 313.565 26.0807C313.565 25.1025 313.377 24.2792 313.001 23.6107C312.625 22.926 312.126 22.4125 311.505 22.0701C310.884 21.7277 310.214 21.5565 309.495 21.5565C308.776 21.5565 308.105 21.7277 307.484 22.0701C306.879 22.4125 306.397 22.926 306.038 23.6107C305.678 24.2792 305.498 25.1025 305.498 26.0807C305.498 27.5317 305.866 28.6566 306.602 29.4554C307.354 30.238 308.293 30.6293 309.421 30.6293Z" fill="white"/>
<path d="M324.639 19.1355C325.685 19.1355 326.609 19.3475 327.41 19.7713C328.227 20.1789 328.864 20.6925 329.322 21.312V19.3556H332.142V33.0503C332.142 34.2894 331.88 35.3898 331.357 36.3517C330.834 37.3299 330.074 38.0962 329.077 38.6505C328.096 39.2048 326.919 39.4819 325.546 39.4819C323.716 39.4819 322.196 39.0499 320.986 38.1858C319.776 37.3381 319.09 36.1805 318.927 34.7132H321.697C321.91 35.4143 322.359 35.9767 323.046 36.4006C323.748 36.8408 324.582 37.0609 325.546 37.0609C326.674 37.0609 327.581 36.7185 328.268 36.0338C328.971 35.3491 329.322 34.3546 329.322 33.0503V30.8005C328.848 31.4363 328.202 31.9743 327.385 32.4145C326.584 32.8384 325.669 33.0503 324.639 33.0503C323.462 33.0503 322.384 32.7568 321.403 32.1699C320.438 31.5667 319.67 30.7353 319.098 29.6755C318.542 28.5995 318.265 27.3849 318.265 26.0318C318.265 24.6786 318.542 23.4803 319.098 22.4369C319.67 21.3935 320.438 20.5865 321.403 20.0159C322.384 19.429 323.462 19.1355 324.639 19.1355ZM329.322 26.0807C329.322 25.1514 329.126 24.3444 328.734 23.6597C328.358 22.9749 327.859 22.4532 327.238 22.0945C326.617 21.7359 325.947 21.5565 325.228 21.5565C324.508 21.5565 323.838 21.7359 323.217 22.0945C322.596 22.4369 322.089 22.9505 321.697 23.6352C321.321 24.3036 321.133 25.1025 321.133 26.0318C321.133 26.9611 321.321 27.7762 321.697 28.4773C322.089 29.1783 322.596 29.7163 323.217 30.0913C323.855 30.4499 324.525 30.6293 325.228 30.6293C325.947 30.6293 326.617 30.4499 327.238 30.0913C327.859 29.7326 328.358 29.2109 328.734 28.5262C329.126 27.8251 329.322 27.01 329.322 26.0807Z" fill="white"/>
<path d="M337.235 17.5704C336.728 17.5704 336.303 17.3992 335.96 17.0569C335.617 16.7145 335.445 16.2906 335.445 15.7852C335.445 15.2798 335.617 14.8559 335.96 14.5136C336.303 14.1712 336.728 14 337.235 14C337.725 14 338.142 14.1712 338.485 14.5136C338.828 14.8559 339 15.2798 339 15.7852C339 16.2906 338.828 16.7145 338.485 17.0569C338.142 17.3992 337.725 17.5704 337.235 17.5704ZM338.608 19.3556V32.8302H335.813V19.3556H338.608Z" fill="white"/>
<path d="M135.39 58.3483L128.795 50.7428V58.3483H126V41.3522H128.795V49.1044L135.415 41.3522H138.921L131.516 49.8625L139.043 58.3483H135.39Z" fill="white"/>
<path d="M140.583 51.5499C140.583 50.1967 140.861 48.9984 141.417 47.955C141.989 46.9116 142.757 46.1046 143.722 45.534C144.702 44.947 145.781 44.6536 146.958 44.6536C148.02 44.6536 148.944 44.8655 149.728 45.2894C150.529 45.697 151.167 46.2105 151.641 46.8301V44.8737H154.46V58.3483H151.641V56.343C151.167 56.9788 150.521 57.5087 149.704 57.9326C148.887 58.3564 147.955 58.5684 146.909 58.5684C145.748 58.5684 144.686 58.2749 143.722 57.688C142.757 57.0848 141.989 56.2533 141.417 55.1936C140.861 54.1176 140.583 52.903 140.583 51.5499ZM151.641 51.5988C151.641 50.6695 151.445 49.8625 151.052 49.1777C150.677 48.493 150.178 47.9713 149.557 47.6126C148.936 47.254 148.266 47.0746 147.546 47.0746C146.827 47.0746 146.157 47.254 145.536 47.6126C144.915 47.955 144.408 48.4685 144.016 49.1533C143.64 49.8217 143.452 50.6206 143.452 51.5499C143.452 52.4791 143.64 53.2943 144.016 53.9953C144.408 54.6964 144.915 55.2344 145.536 55.6094C146.173 55.968 146.844 56.1474 147.546 56.1474C148.266 56.1474 148.936 55.968 149.557 55.6094C150.178 55.2507 150.677 54.729 151.052 54.0442C151.445 53.3432 151.641 52.528 151.641 51.5988Z" fill="white"/>
<path d="M159.554 43.0885C159.047 43.0885 158.622 42.9173 158.279 42.5749C157.935 42.2326 157.764 41.8087 157.764 41.3033C157.764 40.7979 157.935 40.374 158.279 40.0316C158.622 39.6893 159.047 39.5181 159.554 39.5181C160.044 39.5181 160.461 39.6893 160.804 40.0316C161.147 40.374 161.319 40.7979 161.319 41.3033C161.319 41.8087 161.147 42.2326 160.804 42.5749C160.461 42.9173 160.044 43.0885 159.554 43.0885ZM160.927 60.9894C160.927 62.31 160.591 63.2637 159.921 63.8506C159.268 64.4538 158.311 64.7555 157.053 64.7555H155.606V62.4078H156.562C157.134 62.4078 157.535 62.2937 157.764 62.0654C158.009 61.8535 158.132 61.4948 158.132 60.9894V44.8737H160.927V60.9894Z" fill="white"/>
<path d="M163.664 51.5499C163.664 50.1967 163.942 48.9984 164.498 47.955C165.07 46.9116 165.838 46.1046 166.803 45.534C167.783 44.947 168.862 44.6536 170.039 44.6536C171.102 44.6536 172.025 44.8655 172.81 45.2894C173.61 45.697 174.248 46.2105 174.722 46.8301V44.8737H177.541V58.3483H174.722V56.343C174.248 56.9788 173.602 57.5087 172.785 57.9326C171.968 58.3564 171.036 58.5684 169.99 58.5684C168.83 58.5684 167.767 58.2749 166.803 57.688C165.838 57.0848 165.07 56.2533 164.498 55.1936C163.942 54.1176 163.664 52.903 163.664 51.5499ZM174.722 51.5988C174.722 50.6695 174.526 49.8625 174.134 49.1777C173.758 48.493 173.259 47.9713 172.638 47.6126C172.017 47.254 171.347 47.0746 170.627 47.0746C169.908 47.0746 169.238 47.254 168.617 47.6126C167.996 47.955 167.489 48.4685 167.097 49.1533C166.721 49.8217 166.533 50.6206 166.533 51.5499C166.533 52.4791 166.721 53.2943 167.097 53.9953C167.489 54.6964 167.996 55.2344 168.617 55.6094C169.255 55.968 169.925 56.1474 170.627 56.1474C171.347 56.1474 172.017 55.968 172.638 55.6094C173.259 55.2507 173.758 54.729 174.134 54.0442C174.526 53.3432 174.722 52.528 174.722 51.5988Z" fill="white"/>
<path d="M188.029 44.6536C189.091 44.6536 190.039 44.8737 190.873 45.3139C191.723 45.7541 192.384 46.4062 192.858 47.2703C193.333 48.1343 193.57 49.1777 193.57 50.4005V58.3483H190.799V50.8162C190.799 49.6098 190.497 48.6886 189.892 48.0528C189.287 47.4007 188.462 47.0746 187.416 47.0746C186.369 47.0746 185.536 47.4007 184.915 48.0528C184.31 48.6886 184.008 49.6098 184.008 50.8162V58.3483H181.213V44.8737H184.008V46.4143C184.465 45.86 185.046 45.428 185.748 45.1182C186.468 44.8085 187.228 44.6536 188.029 44.6536Z" fill="white"/>
<path d="M202.578 44.6536C203.624 44.6536 204.547 44.8655 205.348 45.2894C206.165 45.697 206.803 46.2105 207.261 46.8301V44.8737H210.08V58.5684C210.08 59.8074 209.819 60.9079 209.295 61.8698C208.772 62.848 208.012 63.6142 207.015 64.1685C206.035 64.7228 204.858 65 203.485 65C201.654 65 200.134 64.568 198.925 63.7039C197.715 62.8561 197.028 61.6986 196.865 60.2313H199.636C199.848 60.9324 200.297 61.4948 200.984 61.9187C201.687 62.3589 202.52 62.579 203.485 62.579C204.613 62.579 205.52 62.2366 206.206 61.5519C206.909 60.8671 207.261 59.8726 207.261 58.5684V56.3185C206.787 56.9544 206.141 57.4924 205.324 57.9326C204.523 58.3564 203.607 58.5684 202.578 58.5684C201.401 58.5684 200.322 58.2749 199.341 57.688C198.377 57.0848 197.609 56.2533 197.037 55.1936C196.481 54.1176 196.203 52.903 196.203 51.5499C196.203 50.1967 196.481 48.9984 197.037 47.955C197.609 46.9116 198.377 46.1046 199.341 45.534C200.322 44.947 201.401 44.6536 202.578 44.6536ZM207.261 51.5988C207.261 50.6695 207.064 49.8625 206.672 49.1777C206.296 48.493 205.798 47.9713 205.177 47.6126C204.555 47.254 203.885 47.0746 203.166 47.0746C202.447 47.0746 201.777 47.254 201.156 47.6126C200.535 47.955 200.028 48.4685 199.636 49.1533C199.26 49.8217 199.072 50.6206 199.072 51.5499C199.072 52.4791 199.26 53.2943 199.636 53.9953C200.028 54.6964 200.535 55.2344 201.156 55.6094C201.793 55.968 202.463 56.1474 203.166 56.1474C203.885 56.1474 204.555 55.968 205.177 55.6094C205.798 55.2507 206.296 54.729 206.672 54.0442C207.064 53.3432 207.261 52.528 207.261 51.5988Z" fill="white"/>
<path d="M26.8382 56.1795C24.9274 56.1795 23.3463 55.6549 22.0918 54.6025L23.6546 52.8466C24.668 53.6078 25.7638 53.99 26.9389 53.99C27.7112 53.99 28.0958 53.7716 28.0958 53.3379V53.3106C28.0958 53.1105 27.9859 52.9467 27.7631 52.8194C27.5128 52.6829 27.0549 52.5434 26.3895 52.3978C25.1167 52.1249 24.2101 51.8125 23.6699 51.4607C22.9373 50.9876 22.571 50.3053 22.571 49.4076V49.3803C22.571 48.4827 22.9251 47.7488 23.6332 47.1817C24.3414 46.6146 25.2937 46.3325 26.4903 46.3325C28.1477 46.3325 29.5396 46.7541 30.6567 47.5971L29.2526 49.4622C28.3064 48.8375 27.3602 48.5221 26.417 48.5221C25.7424 48.5221 25.4036 48.7253 25.4036 49.1347V49.162C25.4036 49.3803 25.5227 49.5532 25.7577 49.6775C25.9927 49.8049 26.4597 49.9414 27.1526 50.0869C28.4255 50.3508 29.3473 50.6813 29.915 51.0816C30.5896 51.5608 30.9284 52.2189 30.9284 53.0529V53.0802C30.9284 54.0415 30.556 54.7997 29.8143 55.3516C29.0726 55.9036 28.0775 56.1826 26.8321 56.1826L26.8382 56.1795Z" fill="white"/>
<path d="M39.7314 56.1946C38.2449 56.1946 37.1033 55.8398 36.3005 55.1332C35.4611 54.3902 35.043 53.2924 35.043 51.8397V46.4932H37.8939V51.7851C37.8939 53.1377 38.5166 53.814 39.7619 53.814C41.0073 53.814 41.63 53.162 41.63 51.8549V46.4962H44.4809V51.776C44.4809 53.262 44.0505 54.3841 43.1928 55.1362C42.3839 55.8428 41.2301 56.1976 39.7345 56.1976L39.7314 56.1946Z" fill="white"/>
<path d="M49.0391 56.0188V46.4963H53.8282C55.2934 46.4963 56.3953 46.8421 57.1278 47.5305C57.7261 48.0915 58.0252 48.8315 58.0252 49.7473V49.7746C58.0252 51.1727 57.3293 52.1462 55.9405 52.7011L58.3579 56.0219H55.1163L53.0773 53.1378H51.8472V56.0219H49.0391V56.0188ZM51.8472 51.0665H53.7C54.1731 51.0665 54.5425 50.9665 54.808 50.7663C55.0736 50.5662 55.2048 50.2902 55.2048 49.9354V49.9081C55.2048 49.156 54.6981 48.7799 53.6848 48.7799H51.8472V51.0665Z" fill="white"/>
<path d="M62.3369 56.0188V46.4963H70.4409V48.8102H65.1451V50.4297H69.9342V52.6193H65.1451V56.0219H62.3369V56.0188Z" fill="white"/>
<path d="M75.6056 56.0188V46.4963H83.7523V48.7405H78.3832V50.181H83.2457V52.2614H78.3832V53.7717H83.8226V56.0158H75.6025L75.6056 56.0188Z" fill="white"/>
<path d="M88.832 56.0187V54.099L93.9112 48.7252H89.006V46.4932H97.7907V48.4098L92.7116 53.7836H97.7907V56.0157H88.832V56.0187Z" fill="white"/>
<path d="M23.4013 62.9697L22.0918 59.4912H22.5435L23.5905 62.3631L24.5978 59.4912H24.9397L25.9469 62.3631L26.9939 59.4912H27.4273L26.1179 62.9697H25.7668L24.7596 60.1675L23.7492 62.9697H23.4043H23.4013Z" fill="white"/>
<path d="M30.4796 62.9394L32.1493 59.4609H32.5369L34.2065 62.9394H33.7609L33.3305 62.0296H31.3343L30.9008 62.9394H30.4766H30.4796ZM31.5022 61.6778H33.1718L32.3385 59.9189L31.5022 61.6778Z" fill="white"/>
<path d="M37.5518 62.9393V59.4912H37.9669V62.5784H40.0303V62.9393H37.5518Z" fill="white"/>
<path d="M43.4121 62.9393V59.4912H43.8272V62.5784H45.8906V62.9393H43.4121Z" fill="white"/>
<path d="M54.7282 62.9879C54.1666 62.9879 53.666 62.8029 53.2295 62.436L53.4859 62.1509C53.8705 62.4754 54.2887 62.6392 54.7435 62.6392C54.9877 62.6392 55.1861 62.5846 55.3356 62.4754C55.4852 62.3662 55.5615 62.2267 55.5615 62.0539V62.0448C55.5615 61.878 55.4974 61.7476 55.3723 61.6566C55.2318 61.5535 54.9785 61.4655 54.6061 61.3897C54.1727 61.3018 53.8613 61.1835 53.6721 61.041C53.4737 60.8863 53.373 60.671 53.373 60.395V60.3859C53.373 60.113 53.4859 59.8886 53.7148 59.7127C53.9437 59.5368 54.2307 59.4458 54.5786 59.4458C55.064 59.4458 55.4943 59.5883 55.8667 59.8704L55.6256 60.1706C55.302 59.9219 54.948 59.7976 54.5664 59.7976C54.3314 59.7976 54.1421 59.8522 54.0017 59.9583C53.8583 60.0645 53.7881 60.1979 53.7881 60.3556V60.3647C53.7881 60.5345 53.8522 60.668 53.9834 60.7589C54.1299 60.8651 54.3985 60.9561 54.7862 61.0349C55.2013 61.1198 55.5035 61.2381 55.6958 61.3928C55.885 61.5444 55.9827 61.7506 55.9827 62.0114V62.0205C55.9827 62.3117 55.8667 62.5482 55.6317 62.7271C55.3997 62.9061 55.0975 62.994 54.7313 62.994L54.7282 62.9879Z" fill="white"/>
<path d="M59.4366 62.9393V59.4912H62.0861V59.846H59.8487V61.0227H61.8511V61.3775H59.8487V62.5845H62.1105V62.9393H59.4336H59.4366Z" fill="white"/>
<path d="M65.5664 62.9393V59.4912H67.1445C67.5962 59.4912 67.9411 59.6065 68.1884 59.8369C68.3776 60.0128 68.4723 60.2403 68.4723 60.5162V60.5253C68.4723 60.8013 68.3776 61.0288 68.1884 61.2047C68.0144 61.3684 67.7763 61.4776 67.4741 61.5291L68.6005 62.9363H68.0938L67.0315 61.5959H65.9846V62.9363H65.5695L65.5664 62.9393ZM65.9815 61.2501H67.1079C67.3856 61.2501 67.6145 61.1865 67.7885 61.0591C67.9625 60.9317 68.051 60.7589 68.051 60.5435V60.5344C68.051 60.3222 67.9686 60.1554 67.8007 60.0341C67.6359 59.9158 67.4039 59.8551 67.1109 59.8551H65.9785V61.2532L65.9815 61.2501Z" fill="white"/>
<path d="M73.2333 62.9697L71.6553 59.4912H72.1162L73.4195 62.4602L74.729 59.4912H75.1746L73.5966 62.9697H73.2303H73.2333Z" fill="white"/>
<path d="M78.5576 62.9393V59.4912H78.9727V62.9393H78.5576Z" fill="white"/>
<path d="M84.3385 63C83.8165 63 83.377 62.8302 83.026 62.4875C82.675 62.1448 82.501 61.7263 82.501 61.2259V61.2168C82.501 60.7194 82.678 60.3009 83.029 59.9522C83.3801 59.6034 83.8226 59.4336 84.3538 59.4336C84.8849 59.4336 85.3732 59.6156 85.7853 59.9795L85.5015 60.2645C85.1474 59.9491 84.7658 59.7914 84.3477 59.7914C83.9295 59.7914 83.6059 59.9279 83.3343 60.2009C83.0626 60.4738 82.9283 60.8074 82.9283 61.2047V61.2138C82.9283 61.6141 83.0657 61.9507 83.3373 62.2267C83.609 62.4996 83.9478 62.6391 84.3477 62.6391C84.7475 62.6391 85.1626 62.4723 85.532 62.1417L85.8036 62.3935C85.3794 62.7968 84.891 63 84.3354 63H84.3385Z" fill="white"/>
<path d="M89.1455 62.9393V59.4912H91.798V59.846H89.5606V61.0227H91.5599V61.3775H89.5606V62.5845H91.8224V62.9393H89.1455Z" fill="white"/>
<path d="M96.5388 62.9879C95.9771 62.9879 95.4765 62.8029 95.04 62.436L95.2964 62.1509C95.681 62.4754 96.0992 62.6392 96.554 62.6392C96.7982 62.6392 96.9966 62.5846 97.1462 62.4754C97.2957 62.3662 97.372 62.2267 97.372 62.0539V62.0448C97.372 61.878 97.311 61.7476 97.1828 61.6566C97.0424 61.5535 96.789 61.4655 96.4197 61.3897C95.9863 61.3018 95.6749 61.1835 95.4857 61.041C95.2873 60.8863 95.1866 60.671 95.1866 60.395V60.3859C95.1866 60.113 95.2995 59.8886 95.5284 59.7127C95.7573 59.5368 96.0443 59.4458 96.3922 59.4458C96.8776 59.4458 97.308 59.5883 97.6803 59.8704L97.4392 60.1706C97.1157 59.9219 96.7616 59.7976 96.38 59.7976C96.145 59.7976 95.9557 59.8522 95.8123 59.9583C95.6688 60.0645 95.5986 60.1979 95.5986 60.3556V60.3647C95.5986 60.5345 95.6627 60.668 95.794 60.7589C95.9405 60.8651 96.2091 60.9561 96.5937 61.0349C97.0088 61.1198 97.311 61.2381 97.5033 61.3928C97.6925 61.5444 97.7902 61.7506 97.7902 62.0114V62.0205C97.7902 62.3117 97.6742 62.5482 97.4392 62.7271C97.2042 62.9061 96.905 62.994 96.5388 62.994V62.9879Z" fill="white"/>
<path d="M18.216 22.0118H35.9472V19.8101H16V30.8186H33.7312V37.4267H18.216V35.225H31.5152V33.0203H16V33.6238V35.225V37.4267V38.4548V39.6284H35.9472V28.6169H18.216V22.0118Z" fill="white"/>
<path d="M64.8743 33.0201H62.6552V15.4065H51.5751V33.0201H49.3591V15.4065H42.708V15.7977V17.6082V19.8099V20.6287V39.6282H71.5223V19.8099H69.3063V37.4265H58.2232V19.8099H56.0072V37.4265H44.924V20.6287V19.8099V17.6082H47.14V35.2248H53.7911V17.6082H60.4392V35.2248H67.0903V17.6082H71.5223V15.4065H64.8743V33.0201Z" fill="white"/>
<path d="M74.7336 11H73.6622H44.8113H42.6349H16V12.1009V13.2017V15.4064V16.9319V17.6081H38.1632V24.2132H20.432V26.4149H38.1632V39.6282H40.3792V15.4064H18.216V13.2017H42.5952L42.6349 13.1653V13.2017H73.6622H74.7336H100.26V39.6282H102.476V11H74.7336Z" fill="white"/>
<path d="M75.8781 22.0118H93.6093V19.8101H73.6621V30.8186H91.3933V37.4267H73.6621V39.6284H93.6093V28.6169H75.8781V22.0118Z" fill="white"/>
<path d="M73.6621 17.6082H95.8253V24.2133H78.0941V26.415H95.8253V39.6282H98.0444V15.4065H73.6621V17.6082Z" fill="white"/>
<path d="M89.1773 33.02H73.6621V35.2217H89.1773V33.02Z" fill="white"/>
</svg>
