<?xml version="1.0" encoding="UTF-8"?>
<svg id="Layer_1" data-name="Layer 1" xmlns="http://www.w3.org/2000/svg" xmlns:xlink="http://www.w3.org/1999/xlink" viewBox="0 0 283.4 192.84">
  <defs>
    <style>
      .cls-1 {
        fill: url(#linear-gradient);
      }

      .cls-1, .cls-2, .cls-3, .cls-4, .cls-5, .cls-6, .cls-7, .cls-8 {
        stroke-width: 0px;
      }

      .cls-2 {
        fill: url(#linear-gradient-4);
      }

      .cls-3 {
        fill: url(#linear-gradient-2);
      }

      .cls-4 {
        fill: url(#linear-gradient-3);
      }

      .cls-5 {
        fill: url(#linear-gradient-7);
      }

      .cls-6 {
        fill: url(#linear-gradient-5);
      }

      .cls-7 {
        fill: url(#linear-gradient-6);
      }

      .cls-8 {
        fill: #fff;
      }
    </style>
    <linearGradient id="linear-gradient" x1="309.51" y1="147.15" x2="-31.53" y2="147.15" gradientUnits="userSpaceOnUse">
      <stop offset="0" stop-color="#8f7b96"/>
      <stop offset="1" stop-color="#687ba5"/>
    </linearGradient>
    <linearGradient id="linear-gradient-2" x1="309.51" y1="61.84" x2="-31.53" y2="61.84" gradientUnits="userSpaceOnUse">
      <stop offset="0" stop-color="#8f7b96"/>
      <stop offset="1" stop-color="#687ba5"/>
    </linearGradient>
    <linearGradient id="linear-gradient-3" x1="309.51" y1="54.58" x2="-31.53" y2="54.58" xlink:href="#linear-gradient-2"/>
    <linearGradient id="linear-gradient-4" x1="309.51" y1="47.32" x2="-31.53" y2="47.32" xlink:href="#linear-gradient-2"/>
    <linearGradient id="linear-gradient-5" y1="61.84" x2="-31.53" y2="61.84" xlink:href="#linear-gradient-2"/>
    <linearGradient id="linear-gradient-6" x1="309.51" y1="54.58" x2="-31.53" y2="54.58" xlink:href="#linear-gradient-2"/>
    <linearGradient id="linear-gradient-7" x1="309.51" y1="76.36" x2="-31.53" y2="76.36" xlink:href="#linear-gradient-2"/>
  </defs>
  <rect class="cls-8" x="-20.78" y="-23.76" width="327.94" height="237.98"/>
  <g>
    <rect class="cls-1" x=".1" y="101.5" width="283.31" height="91.3"/>
    <g>
      <polygon class="cls-3" points="7.36 36.43 65.45 36.43 65.45 29.17 .1 29.17 .1 65.47 58.19 65.47 58.19 87.26 7.36 87.26 7.36 80 50.93 80 50.93 72.73 .1 72.73 .1 74.72 .1 80 .1 87.26 .1 90.65 .1 94.52 65.45 94.52 65.45 58.21 7.36 58.21 7.36 36.43"/>
      <polygon class="cls-4" points="160.22 72.73 152.95 72.73 152.95 14.65 116.65 14.65 116.65 72.73 109.39 72.73 109.39 14.65 87.6 14.65 87.6 15.94 87.6 21.91 87.6 29.17 87.6 31.87 87.6 94.52 182 94.52 182 29.17 174.74 29.17 174.74 87.26 138.43 87.26 138.43 29.17 131.17 29.17 131.17 87.26 94.86 87.26 94.86 31.87 94.86 29.17 94.86 21.91 102.12 21.91 102.12 80 123.91 80 123.91 21.91 145.69 21.91 145.69 80 167.48 80 167.48 21.91 182 21.91 182 14.65 160.22 14.65 160.22 72.73"/>
      <polygon class="cls-2" points="192.52 .12 189.01 .12 94.49 .12 87.36 .12 .1 .12 .1 3.75 .1 7.38 .1 14.65 .1 19.68 .1 21.91 72.71 21.91 72.71 43.69 14.62 43.69 14.62 50.95 72.71 50.95 72.71 94.52 79.97 94.52 79.97 14.65 7.36 14.65 7.36 7.38 87.23 7.38 87.36 7.26 87.36 7.38 189.01 7.38 192.52 7.38 276.15 7.38 276.15 94.52 283.41 94.52 283.41 .12 192.52 .12"/>
      <polygon class="cls-6" points="196.27 36.43 254.36 36.43 254.36 29.17 189.01 29.17 189.01 65.47 247.1 65.47 247.1 87.26 189.01 87.26 189.01 94.52 254.36 94.52 254.36 58.21 196.27 58.21 196.27 36.43"/>
      <polygon class="cls-7" points="189.01 21.91 261.62 21.91 261.62 43.69 203.53 43.69 203.53 50.95 261.62 50.95 261.62 94.52 268.89 94.52 268.89 14.65 189.01 14.65 189.01 21.91"/>
      <rect class="cls-5" x="189.01" y="72.73" width="50.83" height="7.26"/>
    </g>
  </g>
  <g>
    <path class="cls-8" d="m33.3,152.54c-6.26,0-11.44-1.73-15.55-5.2l5.12-5.79c3.32,2.51,6.91,3.77,10.76,3.77,2.53,0,3.79-.72,3.79-2.15v-.09c0-.66-.36-1.2-1.09-1.62-.82-.45-2.32-.91-4.5-1.39-4.17-.9-7.14-1.93-8.91-3.09-2.4-1.56-3.6-3.81-3.6-6.77v-.09c0-2.96,1.16-5.38,3.48-7.25,2.32-1.87,5.44-2.8,9.36-2.8,5.43,0,9.99,1.39,13.65,4.17l-4.6,6.15c-3.1-2.06-6.2-3.1-9.29-3.1-2.21,0-3.32.67-3.32,2.02v.09c0,.72.39,1.29,1.16,1.7.77.42,2.3.87,4.57,1.35,4.17.87,7.19,1.96,9.05,3.28,2.21,1.58,3.32,3.75,3.32,6.5v.09c0,3.17-1.22,5.67-3.65,7.49-2.43,1.82-5.69,2.74-9.77,2.74Z"/>
    <path class="cls-8" d="m75.54,152.59c-4.87,0-8.61-1.17-11.24-3.5-2.75-2.45-4.12-6.07-4.12-10.86v-17.63h9.34v17.45c0,4.46,2.04,6.69,6.12,6.69s6.12-2.15,6.12-6.46v-17.67h9.34v17.41c0,4.9-1.41,8.6-4.22,11.08-2.65,2.33-6.43,3.5-11.33,3.5Z"/>
    <path class="cls-8" d="m106.03,152.01v-31.4h15.69c4.8,0,8.41,1.14,10.81,3.41,1.96,1.85,2.94,4.29,2.94,7.31v.09c0,4.61-2.28,7.82-6.83,9.65l7.92,10.95h-10.62l-6.68-9.51h-4.03v9.51h-9.2Zm9.2-16.33h6.07c1.55,0,2.76-.33,3.63-.99s1.3-1.57,1.3-2.74v-.09c0-2.48-1.66-3.72-4.98-3.72h-6.02v7.54Z"/>
    <path class="cls-8" d="m149.6,152.01v-31.4h26.55v7.63h-17.35v5.34h15.69v7.22h-15.69v11.22h-9.2Z"/>
    <path class="cls-8" d="m193.07,152.01v-31.4h26.69v7.4h-17.59v4.75h15.93v6.86h-15.93v4.98h17.82v7.4h-26.93Z"/>
    <path class="cls-8" d="m236.4,152.01v-6.33l16.64-17.72h-16.07v-7.36h28.78v6.32l-16.64,17.72h16.64v7.36h-29.35Z"/>
  </g>
  <g>
    <path class="cls-8" d="m22.04,174.93l-4.29-11.47h1.48l3.43,9.47,3.3-9.47h1.12l3.3,9.47,3.43-9.47h1.42l-4.29,11.47h-1.15l-3.3-9.24-3.31,9.24h-1.13Z"/>
    <path class="cls-8" d="m45.23,174.83l5.47-11.47h1.27l5.47,11.47h-1.46l-1.41-3h-6.54l-1.42,3h-1.39Zm3.35-4.16h5.47l-2.73-5.8-2.74,5.8Z"/>
    <path class="cls-8" d="m68.4,174.83v-11.37h1.36v10.18h6.76v1.19h-8.12Z"/>
    <path class="cls-8" d="m87.6,174.83v-11.37h1.36v10.18h6.76v1.19h-8.12Z"/>
    <path class="cls-8" d="m124.67,174.99c-1.84,0-3.48-.61-4.91-1.82l.84-.94c1.26,1.07,2.63,1.61,4.12,1.61.8,0,1.45-.18,1.94-.54s.74-.82.74-1.39v-.03c0-.55-.21-.98-.62-1.28-.46-.34-1.29-.63-2.51-.88-1.42-.29-2.44-.68-3.06-1.15-.65-.51-.98-1.22-.98-2.13v-.03c0-.9.37-1.64,1.12-2.22s1.69-.88,2.83-.88c1.59,0,3,.47,4.22,1.4l-.79.99c-1.06-.82-2.22-1.23-3.47-1.23-.77,0-1.39.18-1.85.53-.47.35-.7.79-.7,1.31v.03c0,.56.21,1,.64,1.3.48.35,1.36.65,2.63.91,1.36.28,2.35.67,2.98,1.18.62.5.94,1.18.94,2.04v.03c0,.96-.38,1.74-1.15,2.33-.76.59-1.75.88-2.95.88Z"/>
    <path class="cls-8" d="m140.1,174.83v-11.37h8.68v1.17h-7.33v3.88h6.56v1.17h-6.56v3.98h7.41v1.17h-8.77Z"/>
    <path class="cls-8" d="m160.18,174.83v-11.37h5.17c1.48,0,2.61.38,3.42,1.14.62.58.93,1.33.93,2.24v.03c0,.91-.31,1.66-.93,2.24-.57.54-1.35.9-2.34,1.07l3.69,4.64h-1.66l-3.48-4.42h-3.43v4.42h-1.36Zm1.36-5.57h3.69c.91,0,1.66-.21,2.23-.63s.86-.99.86-1.7v-.03c0-.7-.27-1.25-.82-1.65-.54-.39-1.3-.59-2.26-.59h-3.71v4.61Z"/>
    <path class="cls-8" d="m185.3,174.93l-5.17-11.47h1.51l4.27,9.79,4.29-9.79h1.46l-5.17,11.47h-1.2Z"/>
    <path class="cls-8" d="m202.74,174.83v-11.37h1.36v11.37h-1.36Z"/>
    <path class="cls-8" d="m221.68,175.03c-1.71,0-3.15-.56-4.3-1.69-1.15-1.13-1.72-2.51-1.72-4.16v-.03c0-1.64.58-3.02,1.73-4.17s2.6-1.71,4.34-1.71,3.34.6,4.69,1.8l-.93.94c-1.16-1.04-2.41-1.56-3.78-1.56s-2.43.45-3.32,1.35c-.89.9-1.33,2-1.33,3.31v.03c0,1.32.45,2.43,1.34,3.34.89.9,2,1.36,3.31,1.36s2.67-.55,3.88-1.64l.89.83c-1.39,1.33-2.99,2-4.81,2Z"/>
    <path class="cls-8" d="m237.43,174.83v-11.37h8.69v1.17h-7.33v3.88h6.55v1.17h-6.55v3.98h7.41v1.17h-8.77Z"/>
    <path class="cls-8" d="m261.65,174.99c-1.84,0-3.48-.61-4.91-1.82l.84-.94c1.26,1.07,2.63,1.61,4.12,1.61.8,0,1.45-.18,1.94-.54s.74-.82.74-1.39v-.03c0-.55-.2-.98-.62-1.28-.46-.34-1.29-.63-2.5-.88-1.42-.29-2.44-.68-3.06-1.15-.65-.51-.98-1.22-.98-2.13v-.03c0-.9.37-1.64,1.12-2.22s1.69-.88,2.83-.88c1.59,0,3,.47,4.22,1.4l-.79.99c-1.06-.82-2.22-1.23-3.47-1.23-.77,0-1.39.18-1.86.53-.47.35-.7.79-.7,1.31v.03c0,.56.21,1,.64,1.3.48.35,1.36.65,2.62.91,1.36.28,2.35.67,2.98,1.18.62.5.94,1.18.94,2.04v.03c0,.96-.38,1.74-1.15,2.33-.77.59-1.75.88-2.95.88Z"/>
  </g>
</svg>