<svg width="300" height="183" viewBox="0 0 300 183" fill="none" xmlns="http://www.w3.org/2000/svg">
<path d="M7.68769 38.4489H69.1998V30.7612H0V69.1997H61.5121V92.2734H7.68769V84.5857H53.8244V76.8874H0V78.9946V84.5857V92.2734V95.8631V99.961H69.1998V61.512H7.68769V38.4489Z" fill="white"/>
<path d="M169.553 76.8875H161.855V15.386H123.416V76.8875H115.728V15.386H92.6548V16.752V23.0737V30.7614V33.6204V99.9612H192.616V30.7614H184.928V92.2735H146.479V30.7614H138.792V92.2735H100.342V33.6204V30.7614V23.0737H108.03V84.5858H131.104V23.0737H154.167V84.5858H177.241V23.0737H192.616V15.386H169.553V76.8875Z" fill="white"/>
<path d="M203.756 0H200.039H99.9506H92.4006H0V3.84385V7.68769V15.386V20.7123V23.0737H76.8875V46.1367H15.3754V53.8244H76.8875V99.9612H84.5752V15.386H7.68769V7.68769H92.2629L92.4006 7.56062V7.68769H200.039H203.756H292.312V99.9612H300V0H203.756Z" fill="white"/>
<path d="M207.727 38.4489H269.239V30.7612H200.039V69.1997H261.551V92.2734H200.039V99.961H269.239V61.512H207.727V38.4489Z" fill="white"/>
<path d="M200.039 23.0737H276.927V46.1368H215.414V53.8244H276.927V99.9612H284.625V15.386H200.039V23.0737Z" fill="white"/>
<path d="M253.863 76.8875H200.039V84.5751H253.863V76.8875Z" fill="white"/>
<path d="M20.4265 182.831L15.8838 170.686H17.451L21.083 180.714L24.5774 170.686H25.7634L29.2578 180.714L32.8899 170.686H34.3935L29.8508 182.831H28.6331L25.1387 173.047L21.6337 182.831H20.4371H20.4265Z" fill="white"/>
<path d="M44.9828 182.726L50.775 170.58H52.1198L57.9121 182.726H56.366L54.873 179.549H47.9477L46.4441 182.726H44.9722H44.9828ZM48.5301 178.321H54.3223L51.4315 172.179L48.5301 178.321Z" fill="white"/>
<path d="M69.5176 182.726V170.686H70.9577V181.465H78.1159V182.726H69.5176Z" fill="white"/>
<path d="M89.8486 182.726V170.686H91.2888V181.465H98.447V182.726H89.8486Z" fill="white"/>
<path d="M129.102 182.895C127.154 182.895 125.417 182.249 123.903 180.968L124.792 179.973C126.127 181.106 127.577 181.677 129.155 181.677C130.002 181.677 130.69 181.487 131.209 181.106C131.728 180.724 131.993 180.237 131.993 179.634V179.602C131.993 179.02 131.771 178.564 131.336 178.247C130.849 177.887 129.97 177.579 128.679 177.315C127.175 177.008 126.095 176.595 125.438 176.097C124.75 175.557 124.401 174.805 124.401 173.841V173.81C124.401 172.857 124.792 172.073 125.586 171.459C126.381 170.845 127.376 170.527 128.583 170.527C130.267 170.527 131.76 171.025 133.052 172.01L132.215 173.058C131.093 172.19 129.864 171.755 128.541 171.755C127.725 171.755 127.069 171.946 126.582 172.317C126.084 172.687 125.841 173.153 125.841 173.704V173.736C125.841 174.329 126.063 174.795 126.518 175.112C127.027 175.483 127.958 175.8 129.303 176.076C130.743 176.372 131.792 176.785 132.459 177.325C133.115 177.855 133.454 178.575 133.454 179.485V179.517C133.454 180.534 133.052 181.36 132.236 181.985C131.432 182.609 130.383 182.916 129.113 182.916L129.102 182.895Z" fill="white"/>
<path d="M145.441 182.726V170.686H154.633V171.925H146.871V176.033H153.817V177.272H146.871V181.487H154.717V182.726H145.431H145.441Z" fill="white"/>
<path d="M166.705 182.726V170.686H172.179C173.746 170.686 174.943 171.088 175.801 171.893C176.457 172.507 176.785 173.301 176.785 174.265V174.297C176.785 175.26 176.457 176.054 175.801 176.669C175.197 177.24 174.371 177.622 173.323 177.802L177.23 182.715H175.472L171.787 178.035H168.155V182.715H166.715L166.705 182.726ZM168.145 176.827H172.052C173.016 176.827 173.81 176.605 174.413 176.16C175.017 175.716 175.324 175.112 175.324 174.36V174.328C175.324 173.587 175.038 173.005 174.456 172.581C173.884 172.168 173.079 171.956 172.063 171.956H168.134V176.838L168.145 176.827Z" fill="white"/>
<path d="M193.304 182.831L187.83 170.686H189.429L193.95 181.053L198.493 170.686H200.039L194.564 182.831H193.294H193.304Z" fill="white"/>
<path d="M211.771 182.726V170.686H213.212V182.726H211.771Z" fill="white"/>
<path d="M231.828 182.937C230.017 182.937 228.492 182.344 227.274 181.148C226.057 179.951 225.453 178.49 225.453 176.743V176.711C225.453 174.974 226.067 173.513 227.285 172.295C228.503 171.078 230.038 170.485 231.881 170.485C233.723 170.485 235.417 171.12 236.847 172.391L235.862 173.386C234.634 172.285 233.31 171.734 231.86 171.734C230.409 171.734 229.286 172.211 228.344 173.164C227.402 174.117 226.936 175.281 226.936 176.669V176.7C226.936 178.098 227.412 179.274 228.355 180.237C229.297 181.19 230.472 181.677 231.86 181.677C233.247 181.677 234.687 181.095 235.968 179.941L236.911 180.82C235.439 182.228 233.744 182.937 231.817 182.937H231.828Z" fill="white"/>
<path d="M248.505 182.726V170.686H257.707V171.925H249.945V176.033H256.881V177.272H249.945V181.487H257.792V182.726H248.505Z" fill="white"/>
<path d="M274.152 182.895C272.204 182.895 270.467 182.249 268.953 180.968L269.843 179.973C271.177 181.106 272.628 181.677 274.205 181.677C275.052 181.677 275.741 181.487 276.26 181.106C276.779 180.724 277.043 180.237 277.043 179.634V179.602C277.043 179.02 276.831 178.564 276.387 178.247C275.9 177.887 275.021 177.579 273.739 177.315C272.236 177.008 271.156 176.595 270.499 176.097C269.811 175.557 269.461 174.805 269.461 173.841V173.81C269.461 172.857 269.853 172.073 270.647 171.459C271.442 170.845 272.437 170.527 273.644 170.527C275.328 170.527 276.821 171.025 278.113 172.01L277.276 173.058C276.154 172.19 274.925 171.755 273.602 171.755C272.786 171.755 272.13 171.946 271.632 172.317C271.134 172.687 270.891 173.153 270.891 173.704V173.736C270.891 174.329 271.113 174.795 271.569 175.112C272.077 175.483 273.009 175.8 274.343 176.076C275.783 176.372 276.831 176.785 277.499 177.325C278.155 177.855 278.494 178.575 278.494 179.485V179.517C278.494 180.534 278.092 181.36 277.276 181.985C276.461 182.609 275.423 182.916 274.152 182.916V182.895Z" fill="white"/>
<path d="M30.2322 151.922C23.6034 151.922 18.1182 150.09 13.7661 146.416L19.1877 140.284C22.7033 142.942 26.5048 144.277 30.5816 144.277C33.2607 144.277 34.5949 143.514 34.5949 142V141.905C34.5949 141.206 34.2137 140.634 33.4407 140.189C32.5724 139.713 30.984 139.226 28.6756 138.717C24.2599 137.764 21.115 136.674 19.2407 135.445C16.6993 133.793 15.4286 131.411 15.4286 128.276V128.181C15.4286 125.047 16.6569 122.484 19.1136 120.504C21.5703 118.524 24.8741 117.539 29.025 117.539C34.7749 117.539 39.6035 119.011 43.4791 121.955L38.6082 128.467C35.3255 126.286 32.0429 125.184 28.7709 125.184C26.4307 125.184 25.2553 125.894 25.2553 127.323V127.419C25.2553 128.181 25.6683 128.785 26.4836 129.219C27.299 129.664 28.9191 130.14 31.3229 130.648C35.7385 131.57 38.9364 132.724 40.906 134.122C43.2462 135.795 44.4216 138.093 44.4216 141.005V141.1C44.4216 144.457 43.1297 147.104 40.5566 149.031C37.9834 150.958 34.5314 151.932 30.211 151.932L30.2322 151.922Z" fill="white"/>
<path d="M74.9602 151.975C69.8033 151.975 65.843 150.736 63.058 148.268C60.146 145.674 58.6953 141.841 58.6953 136.769V118.1H68.5855V136.578C68.5855 141.301 70.7457 143.662 75.0661 143.662C79.3864 143.662 81.5466 141.386 81.5466 136.822V118.111H91.4368V136.546C91.4368 141.735 89.9438 145.653 86.9682 148.279C84.1621 150.746 80.1594 151.985 74.9708 151.985L74.9602 151.975Z" fill="white"/>
<path d="M107.246 151.361V118.111H123.86C128.943 118.111 132.766 119.318 135.307 121.722C137.383 123.681 138.42 126.264 138.42 129.462V129.558C138.42 134.439 136.006 137.838 131.188 139.776L139.575 151.371H128.329L121.255 141.301H116.988V151.371H107.246V151.361ZM116.988 134.069H123.416C125.057 134.069 126.338 133.719 127.26 133.02C128.181 132.321 128.636 131.358 128.636 130.119V130.024C128.636 127.397 126.878 126.084 123.363 126.084H116.988V134.069Z" fill="white"/>
<path d="M153.383 151.361V118.111H181.497V126.19H163.125V131.845H179.74V139.49H163.125V151.371H153.383V151.361Z" fill="white"/>
<path d="M199.414 151.361V118.111H227.676V125.947H209.05V130.977H225.918V138.241H209.05V143.514H227.92V151.35H199.403L199.414 151.361Z" fill="white"/>
<path d="M245.296 151.36V144.658L262.917 125.894H245.9V118.1H276.375V124.792L258.755 143.556H276.375V151.35H245.296V151.36Z" fill="white"/>
</svg>
