<svg width="23" height="23" viewBox="0 0 23 23" fill="none" xmlns="http://www.w3.org/2000/svg">
<path d="M16.4609 8.30251C17.94 9.36355 19.7519 9.98785 21.7088 9.98785V6.20869C21.3384 6.20877 20.969 6.17001 20.6067 6.09297V9.0677C18.6499 9.0677 16.8383 8.44341 15.3588 7.38245V15.0946C15.3588 18.9526 12.2424 22.0799 8.39833 22.0799C6.96401 22.0799 5.63087 21.6448 4.52344 20.8984C5.78739 22.1954 7.55008 23 9.50018 23C13.3445 23 16.4611 19.8727 16.4611 16.0145V8.30251H16.4609ZM17.8205 4.48981C17.0646 3.66107 16.5683 2.59008 16.4609 1.40606V0.919983H15.4165C15.6794 2.42487 16.5761 3.71056 17.8205 4.48981ZM6.95481 17.9379C6.5325 17.3822 6.30428 16.7024 6.3053 16.0035C6.3053 14.239 7.73073 12.8083 9.48933 12.8083C9.81707 12.8082 10.1429 12.8585 10.4552 12.958V9.09438C10.0902 9.04418 9.72179 9.02287 9.35357 9.03068V12.0379C9.041 11.9385 8.71506 11.888 8.38724 11.8883C6.62864 11.8883 5.20329 13.3188 5.20329 15.0836C5.20329 16.3314 5.91577 17.4117 6.95481 17.9379Z" fill="#FF004F"/>
<path d="M15.3588 7.38237C16.8382 8.44333 18.6499 9.06763 20.6066 9.06763V6.09289C19.5144 5.8594 18.5474 5.28657 17.8204 4.48981C16.5759 3.71048 15.6793 2.42479 15.4165 0.919983H12.6731V16.0144C12.6669 17.774 11.2439 19.1989 9.48911 19.1989C8.45502 19.1989 7.53634 18.7042 6.95452 17.9379C5.91555 17.4117 5.20307 16.3313 5.20307 15.0836C5.20307 13.319 6.62843 11.8884 8.38702 11.8884C8.72396 11.8884 9.04872 11.941 9.35335 12.038V9.03076C5.57681 9.10907 2.53955 12.2058 2.53955 16.0144C2.53955 17.9157 3.2959 19.6392 4.52346 20.8985C5.63089 21.6448 6.96403 22.08 8.39834 22.08C12.2425 22.08 15.3588 18.9525 15.3588 15.0946V7.38237H15.3588Z" fill="black"/>
<path d="M20.6066 6.09289V5.28855C19.6216 5.29005 18.656 5.01322 17.8204 4.48973C18.5601 5.30252 19.5342 5.86296 20.6066 6.09289ZM15.4164 0.919984C15.3913 0.776165 15.3721 0.631399 15.3587 0.48608V0H11.5709V15.0945C11.5649 16.854 10.142 18.2788 8.38698 18.2788C7.87175 18.2788 7.38528 18.1561 6.95448 17.938C7.5363 18.7042 8.45499 19.1988 9.48908 19.1988C11.2437 19.1988 12.667 17.7741 12.6731 16.0144V0.919984H15.4164ZM9.35347 9.03076V8.17448C9.03697 8.13107 8.71787 8.10928 8.39838 8.10944C4.55392 8.10936 1.4375 11.2368 1.4375 15.0945C1.4375 17.5131 2.66231 19.6446 4.5235 20.8984C3.29594 19.6391 2.53959 17.9155 2.53959 16.0144C2.53959 12.2058 5.57677 9.10907 9.35347 9.03076Z" fill="#00F2EA"/>
</svg>
