<svg width="20" height="14" viewBox="0 0 20 14" fill="none" xmlns="http://www.w3.org/2000/svg">
<path fill-rule="evenodd" clip-rule="evenodd" d="M12.2929 13.7071C11.9024 13.3166 11.9024 12.6834 12.2929 12.2929L16.5858 8L1 8C0.447716 8 5.63677e-07 7.55228 6.11959e-07 7C6.60242e-07 6.44771 0.447716 6 1 6L16.5858 6L12.2929 1.70711C11.9024 1.31658 11.9024 0.683417 12.2929 0.292893C12.6834 -0.0976321 13.3166 -0.097632 13.7071 0.292893L19.7071 6.29289C20.0976 6.68342 20.0976 7.31658 19.7071 7.70711L13.7071 13.7071C13.3166 14.0976 12.6834 14.0976 12.2929 13.7071Z" fill="white"/>
</svg>
